<svg width="550" xmlns="http://www.w3.org/2000/svg" height="550" id="screenshot-3c7545fb-b191-8012-8007-0dec461d7ade" viewBox="0 0 550 550" xmlns:xlink="http://www.w3.org/1999/xlink" fill="none" version="1.1"><g id="shape-3c7545fb-b191-8012-8007-0dec461d7ade" rx="0" ry="0"><g id="shape-3c7545fb-b191-8012-8007-0dec37d6789a"><g class="fills" id="fills-3c7545fb-b191-8012-8007-0dec37d6789a"><rect rx="0" ry="0" x="0" y="0" transform="matrix(1.000000, 0.000000, 0.000000, 1.000000, 0.000000, 0.000000)" width="550" height="550" style="fill: rgb(255, 255, 255); fill-opacity: 0;"/></g></g><g id="shape-3c7545fb-b191-8012-8007-0de93607fd32" rx="0" ry="0"><g id="shape-3c7545fb-b191-8012-8007-0deb55f14f3e" rx="0" ry="0"><g id="shape-3c7545fb-b191-8012-8007-0de918a2f328"><g class="fills" id="fills-3c7545fb-b191-8012-8007-0de918a2f328"><ellipse cx="150" cy="400" rx="125" ry="125" transform="matrix(1.000000, 0.000000, 0.000000, 1.000000, 0.000000, 0.000000)" style="fill: rgb(255, 215, 12); fill-opacity: 1;"/></g></g><g id="shape-3c7545fb-b191-8012-8007-0deb42004b15"><g class="fills" id="fills-3c7545fb-b191-8012-8007-0deb42004b15"><rect rx="0" ry="0" x="75" y="405" transform="matrix(1.000000, 0.000000, 0.000000, 1.000000, 0.000000, 0.000000)" width="150" height="50" style="fill: rgb(0, 0, 0); fill-opacity: 1;"/></g></g><g id="shape-3c7545fb-b191-8012-8007-0deb42367a99"><g class="fills" id="fills-3c7545fb-b191-8012-8007-0deb42367a99"><rect rx="0" ry="0" x="75" y="345" transform="matrix(1.000000, 0.000000, 0.000000, 1.000000, 0.000000, 0.000000)" width="150" height="50" style="fill: rgb(0, 0, 0); fill-opacity: 1;"/></g></g></g><g id="shape-3c7545fb-b191-8012-8007-0de99c258cd2" rx="0" ry="0"><g id="shape-3c7545fb-b191-8012-8007-0de90454a84b"><g class="fills" id="fills-3c7545fb-b191-8012-8007-0de90454a84b"><ellipse cx="150" cy="150" rx="125" ry="125" transform="matrix(1.000000, 0.000000, 0.000000, 1.000000, 0.000000, 0.000000)" style="fill: rgb(255, 215, 12); fill-opacity: 1;"/></g></g><g id="shape-3c7545fb-b191-8012-8007-0de96159240b"><g class="fills" id="fills-3c7545fb-b191-8012-8007-0de96159240b"><rect rx="0" ry="0" x="75" y="125" transform="matrix(1.000000, 0.000000, 0.000000, 1.000000, 0.000000, 0.000000)" width="150" height="50" style="fill: rgb(0, 0, 0); fill-opacity: 1;"/></g></g></g><g id="shape-3c7545fb-b191-8012-8007-0deac32f8cee" rx="0" ry="0"><g id="shape-3c7545fb-b191-8012-8007-0de91873e4f4"><g class="fills" id="fills-3c7545fb-b191-8012-8007-0de91873e4f4"><ellipse cx="400" cy="400" rx="125" ry="125" transform="matrix(1.000000, 0.000000, 0.000000, 1.000000, 0.000000, 0.000000)" style="fill: rgb(255, 215, 12); fill-opacity: 1;"/></g></g><g id="shape-3c7545fb-b191-8012-8007-0deaa346b7f5"><g class="fills" id="fills-3c7545fb-b191-8012-8007-0deaa346b7f5"><path d="M429.06591796875,377.0660095214844L479.06591796875,377.0660095214844L479.06591796875,427.0660095214844L429.06591796875,427.0660095214844L429.06591796875,477.06591796875L379.06591796875,477.06591796875L379.06591796875,427.0660095214844L329.06591796875,427.0660095214844L329.06591796875,377.0660095214844L379.06591796875,377.0660095214844L379.06591796875,327.06591796875L429.06591796875,327.06591796875L429.06591796875,377.0660095214844" style="fill: rgb(0, 0, 0); fill-opacity: 1;"/></g></g></g><g id="shape-3c7545fb-b191-8012-8007-0dea3c27a24c" rx="0" ry="0"><g id="shape-3c7545fb-b191-8012-8007-0de918db8d85"><g class="fills" id="fills-3c7545fb-b191-8012-8007-0de918db8d85"><ellipse cx="400" cy="150" rx="125" ry="125" transform="matrix(1.000000, 0.000000, 0.000000, 1.000000, 0.000000, 0.000000)" style="fill: rgb(255, 215, 12); fill-opacity: 1;"/></g></g><g id="shape-3c7545fb-b191-8012-8007-0dea564de816"><g class="fills" id="fills-3c7545fb-b191-8012-8007-0dea564de816"><path d="M435.35546875,150L470.710693359375,185.3553466796875L435.355224609375,220.71067810058594L400,185.3554229736328L364.644775390625,220.71067810058594L329.289306640625,185.3553466796875L364.64453125,150L329.289306640625,114.64466094970703L364.644775390625,79.28932189941406L400,114.64458465576172L435.355224609375,79.28932189941406L470.710693359375,114.64466094970703L435.35546875,150" style="fill: rgb(0, 0, 0); fill-opacity: 1;"/></g></g></g></g></g></svg>