<svg width="550" xmlns="http://www.w3.org/2000/svg" height="550" id="screenshot-3c7545fb-b191-8012-8007-0df1c5a17d80" viewBox="0 0 550 550" xmlns:xlink="http://www.w3.org/1999/xlink" fill="none" version="1.1"><g id="shape-3c7545fb-b191-8012-8007-0df1c5a17d80" rx="0" ry="0"><g id="shape-3c7545fb-b191-8012-8007-0df62931098f"><g class="fills" id="fills-3c7545fb-b191-8012-8007-0df62931098f"><rect rx="0" ry="0" x="0" y="0" transform="matrix(1.000000, 0.000000, 0.000000, 1.000000, 0.000000, 0.000000)" width="550" height="550" style="fill: rgb(12, 12, 12); fill-opacity: 0;"/></g></g><g id="shape-3c7545fb-b191-8012-8007-0df1bd3e19d1"><g class="fills" id="fills-3c7545fb-b191-8012-8007-0df1bd3e19d1"><rect rx="0" ry="0" x="25" y="125" transform="matrix(1.000000, 0.000000, 0.000000, 1.000000, 0.000000, 0.000000)" width="500" height="300" style="fill: rgb(255, 215, 12); fill-opacity: 1;"/></g></g><g id="shape-3c7545fb-b191-8012-8007-0df2763f873e"><g class="fills" id="fills-3c7545fb-b191-8012-8007-0df2763f873e"><rect rx="0" ry="0" x="100" y="175" transform="matrix(1.000000, 0.000000, 0.000000, 1.000000, 0.000000, 0.000000)" width="10" height="200" style="fill: rgb(34, 34, 34); fill-opacity: 1;"/></g></g><g id="shape-3c7545fb-b191-8012-8007-0df2a89975ff"><g class="fills" id="fills-3c7545fb-b191-8012-8007-0df2a89975ff"><rect rx="0" ry="0" x="440" y="175" transform="matrix(1.000000, 0.000000, 0.000000, 1.000000, 0.000000, 0.000000)" width="10" height="200" style="fill: rgb(34, 34, 34); fill-opacity: 1;"/></g></g><g id="shape-3c7545fb-b191-8012-8007-0df2fa3ed04b" rx="0" ry="0"><g id="shape-3c7545fb-b191-8012-8007-0df23bf2fe45"><g class="fills" id="fills-3c7545fb-b191-8012-8007-0df23bf2fe45"><rect rx="0" ry="0" x="25" y="125" transform="matrix(1.000000, 0.000000, 0.000000, 1.000000, 0.000000, 0.000000)" width="500" height="50" style="fill: rgb(34, 34, 34); fill-opacity: 1;"/></g></g><g id="shape-3c7545fb-b191-8012-8007-0df2d7f5a784"><g class="fills" id="fills-3c7545fb-b191-8012-8007-0df2d7f5a784"><ellipse cx="50" cy="148" rx="10" ry="10" transform="matrix(1.000000, 0.000000, 0.000000, 1.000000, 0.000000, 0.000000)" style="fill: rgb(12, 12, 12); fill-opacity: 1;"/></g></g><g id="shape-3c7545fb-b191-8012-8007-0df3296d3603"><g class="fills" id="fills-3c7545fb-b191-8012-8007-0df3296d3603"><ellipse cx="85" cy="148" rx="10" ry="10" transform="matrix(1.000000, 0.000000, 0.000000, 1.000000, 0.000000, 0.000000)" style="fill: rgb(12, 12, 12); fill-opacity: 1;"/></g></g><g id="shape-3c7545fb-b191-8012-8007-0df33ef12702"><g class="fills" id="fills-3c7545fb-b191-8012-8007-0df33ef12702"><ellipse cx="120" cy="148" rx="10" ry="10" transform="matrix(1.000000, 0.000000, 0.000000, 1.000000, 0.000000, 0.000000)" style="fill: rgb(12, 12, 12); fill-opacity: 1;"/></g></g><g id="shape-3c7545fb-b191-8012-8007-0df344fae2ab"><g class="fills" id="fills-3c7545fb-b191-8012-8007-0df344fae2ab"><ellipse cx="155" cy="148" rx="10" ry="10" transform="matrix(1.000000, 0.000000, 0.000000, 1.000000, 0.000000, 0.000000)" style="fill: rgb(12, 12, 12); fill-opacity: 1;"/></g></g><g id="shape-3c7545fb-b191-8012-8007-0df346073b5d"><g class="fills" id="fills-3c7545fb-b191-8012-8007-0df346073b5d"><ellipse cx="190" cy="148" rx="10" ry="10" transform="matrix(1.000000, 0.000000, 0.000000, 1.000000, 0.000000, 0.000000)" style="fill: rgb(12, 12, 12); fill-opacity: 1;"/></g></g><g id="shape-3c7545fb-b191-8012-8007-0df3464ccb1d"><g class="fills" id="fills-3c7545fb-b191-8012-8007-0df3464ccb1d"><ellipse cx="225" cy="148" rx="10" ry="10" transform="matrix(1.000000, 0.000000, 0.000000, 1.000000, 0.000000, 0.000000)" style="fill: rgb(12, 12, 12); fill-opacity: 1;"/></g></g><g id="shape-3c7545fb-b191-8012-8007-0df346889c5d"><g class="fills" id="fills-3c7545fb-b191-8012-8007-0df346889c5d"><ellipse cx="260" cy="148" rx="10" ry="10" transform="matrix(1.000000, 0.000000, 0.000000, 1.000000, 0.000000, 0.000000)" style="fill: rgb(12, 12, 12); fill-opacity: 1;"/></g></g><g id="shape-3c7545fb-b191-8012-8007-0df346bae973"><g class="fills" id="fills-3c7545fb-b191-8012-8007-0df346bae973"><ellipse cx="295" cy="148" rx="10" ry="10" transform="matrix(1.000000, 0.000000, 0.000000, 1.000000, 0.000000, 0.000000)" style="fill: rgb(12, 12, 12); fill-opacity: 1;"/></g></g><g id="shape-3c7545fb-b191-8012-8007-0df346ea8583"><g class="fills" id="fills-3c7545fb-b191-8012-8007-0df346ea8583"><ellipse cx="330" cy="148" rx="10" ry="10" transform="matrix(1.000000, 0.000000, 0.000000, 1.000000, 0.000000, 0.000000)" style="fill: rgb(12, 12, 12); fill-opacity: 1;"/></g></g><g id="shape-3c7545fb-b191-8012-8007-0df34720f2b3"><g class="fills" id="fills-3c7545fb-b191-8012-8007-0df34720f2b3"><ellipse cx="365" cy="148" rx="10" ry="10" transform="matrix(1.000000, 0.000000, 0.000000, 1.000000, 0.000000, 0.000000)" style="fill: rgb(12, 12, 12); fill-opacity: 1;"/></g></g><g id="shape-3c7545fb-b191-8012-8007-0df347aec97b"><g class="fills" id="fills-3c7545fb-b191-8012-8007-0df347aec97b"><ellipse cx="400" cy="148" rx="10" ry="10" transform="matrix(1.000000, 0.000000, 0.000000, 1.000000, 0.000000, 0.000000)" style="fill: rgb(12, 12, 12); fill-opacity: 1;"/></g></g><g id="shape-3c7545fb-b191-8012-8007-0df34818c049"><g class="fills" id="fills-3c7545fb-b191-8012-8007-0df34818c049"><ellipse cx="435" cy="148" rx="10" ry="10" transform="matrix(1.000000, 0.000000, 0.000000, 1.000000, 0.000000, 0.000000)" style="fill: rgb(12, 12, 12); fill-opacity: 1;"/></g></g><g id="shape-3c7545fb-b191-8012-8007-0df34882ea8b"><g class="fills" id="fills-3c7545fb-b191-8012-8007-0df34882ea8b"><ellipse cx="470" cy="148" rx="10" ry="10" transform="matrix(1.000000, 0.000000, 0.000000, 1.000000, 0.000000, 0.000000)" style="fill: rgb(12, 12, 12); fill-opacity: 1;"/></g></g><g id="shape-3c7545fb-b191-8012-8007-0df3490f168f"><g class="fills" id="fills-3c7545fb-b191-8012-8007-0df3490f168f"><ellipse cx="505" cy="148" rx="10" ry="10" transform="matrix(1.000000, 0.000000, 0.000000, 1.000000, 0.000000, 0.000000)" style="fill: rgb(12, 12, 12); fill-opacity: 1;"/></g></g></g><g id="shape-3c7545fb-b191-8012-8007-0df37ab4fcbb" rx="0" ry="0"><g id="shape-3c7545fb-b191-8012-8007-0df2582426e8"><g class="fills" id="fills-3c7545fb-b191-8012-8007-0df2582426e8"><rect rx="0" ry="0" x="25" y="375" transform="matrix(1.000000, 0.000000, 0.000000, 1.000000, 0.000000, 0.000000)" width="500" height="50" style="fill: rgb(34, 34, 34); fill-opacity: 1;"/></g></g><g id="shape-3c7545fb-b191-8012-8007-0df35240dbe2"><g class="fills" id="fills-3c7545fb-b191-8012-8007-0df35240dbe2"><ellipse cx="50" cy="401" rx="10" ry="10" transform="matrix(1.000000, 0.000000, 0.000000, 1.000000, 0.000000, 0.000000)" style="fill: rgb(12, 12, 12); fill-opacity: 1;"/></g></g><g id="shape-3c7545fb-b191-8012-8007-0df35240dbe8"><g class="fills" id="fills-3c7545fb-b191-8012-8007-0df35240dbe8"><ellipse cx="85" cy="401" rx="10" ry="10" transform="matrix(1.000000, 0.000000, 0.000000, 1.000000, 0.000000, 0.000000)" style="fill: rgb(12, 12, 12); fill-opacity: 1;"/></g></g><g id="shape-3c7545fb-b191-8012-8007-0df35240dbec"><g class="fills" id="fills-3c7545fb-b191-8012-8007-0df35240dbec"><ellipse cx="120" cy="401" rx="10" ry="10" transform="matrix(1.000000, 0.000000, 0.000000, 1.000000, 0.000000, 0.000000)" style="fill: rgb(12, 12, 12); fill-opacity: 1;"/></g></g><g id="shape-3c7545fb-b191-8012-8007-0df35240dbea"><g class="fills" id="fills-3c7545fb-b191-8012-8007-0df35240dbea"><ellipse cx="155" cy="401" rx="10" ry="10" transform="matrix(1.000000, 0.000000, 0.000000, 1.000000, 0.000000, 0.000000)" style="fill: rgb(12, 12, 12); fill-opacity: 1;"/></g></g><g id="shape-3c7545fb-b191-8012-8007-0df35240dbed"><g class="fills" id="fills-3c7545fb-b191-8012-8007-0df35240dbed"><ellipse cx="190" cy="401" rx="10" ry="10" transform="matrix(1.000000, 0.000000, 0.000000, 1.000000, 0.000000, 0.000000)" style="fill: rgb(12, 12, 12); fill-opacity: 1;"/></g></g><g id="shape-3c7545fb-b191-8012-8007-0df35240dbeb"><g class="fills" id="fills-3c7545fb-b191-8012-8007-0df35240dbeb"><ellipse cx="225" cy="401" rx="10" ry="10" transform="matrix(1.000000, 0.000000, 0.000000, 1.000000, 0.000000, 0.000000)" style="fill: rgb(12, 12, 12); fill-opacity: 1;"/></g></g><g id="shape-3c7545fb-b191-8012-8007-0df35240dbe6"><g class="fills" id="fills-3c7545fb-b191-8012-8007-0df35240dbe6"><ellipse cx="260" cy="401" rx="10" ry="10" transform="matrix(1.000000, 0.000000, 0.000000, 1.000000, 0.000000, 0.000000)" style="fill: rgb(12, 12, 12); fill-opacity: 1;"/></g></g><g id="shape-3c7545fb-b191-8012-8007-0df35240dbe9"><g class="fills" id="fills-3c7545fb-b191-8012-8007-0df35240dbe9"><ellipse cx="330" cy="401" rx="10" ry="10" transform="matrix(1.000000, 0.000000, 0.000000, 1.000000, 0.000000, 0.000000)" style="fill: rgb(12, 12, 12); fill-opacity: 1;"/></g></g><g id="shape-3c7545fb-b191-8012-8007-0df35240dbe4"><g class="fills" id="fills-3c7545fb-b191-8012-8007-0df35240dbe4"><ellipse cx="295" cy="401" rx="10" ry="10" transform="matrix(1.000000, 0.000000, 0.000000, 1.000000, 0.000000, 0.000000)" style="fill: rgb(12, 12, 12); fill-opacity: 1;"/></g></g><g id="shape-3c7545fb-b191-8012-8007-0df35240dbe0"><g class="fills" id="fills-3c7545fb-b191-8012-8007-0df35240dbe0"><ellipse cx="505" cy="401" rx="10" ry="10" transform="matrix(1.000000, 0.000000, 0.000000, 1.000000, 0.000000, 0.000000)" style="fill: rgb(12, 12, 12); fill-opacity: 1;"/></g></g><g id="shape-3c7545fb-b191-8012-8007-0df35240dbe1"><g class="fills" id="fills-3c7545fb-b191-8012-8007-0df35240dbe1"><ellipse cx="435" cy="401" rx="10" ry="10" transform="matrix(1.000000, 0.000000, 0.000000, 1.000000, 0.000000, 0.000000)" style="fill: rgb(12, 12, 12); fill-opacity: 1;"/></g></g><g id="shape-3c7545fb-b191-8012-8007-0df35240dbe3"><g class="fills" id="fills-3c7545fb-b191-8012-8007-0df35240dbe3"><ellipse cx="400" cy="401" rx="10" ry="10" transform="matrix(1.000000, 0.000000, 0.000000, 1.000000, 0.000000, 0.000000)" style="fill: rgb(12, 12, 12); fill-opacity: 1;"/></g></g><g id="shape-3c7545fb-b191-8012-8007-0df35240dbe5"><g class="fills" id="fills-3c7545fb-b191-8012-8007-0df35240dbe5"><ellipse cx="365" cy="401" rx="10" ry="10" transform="matrix(1.000000, 0.000000, 0.000000, 1.000000, 0.000000, 0.000000)" style="fill: rgb(12, 12, 12); fill-opacity: 1;"/></g></g><g id="shape-3c7545fb-b191-8012-8007-0df35240dbe7"><g class="fills" id="fills-3c7545fb-b191-8012-8007-0df35240dbe7"><ellipse cx="470" cy="401" rx="10" ry="10" transform="matrix(1.000000, 0.000000, 0.000000, 1.000000, 0.000000, 0.000000)" style="fill: rgb(12, 12, 12); fill-opacity: 1;"/></g></g></g></g></svg>