<svg width="141.421" xmlns="http://www.w3.org/2000/svg" height="148.711" id="screenshot-5ae5bcca-c706-808b-8007-0f14fc0f2791" viewBox="2306 -362 141.421 148.711" xmlns:xlink="http://www.w3.org/1999/xlink" fill="none" version="1.1"><g id="shape-5ae5bcca-c706-808b-8007-0f14fc0f2791"><g class="fills" id="fills-5ae5bcca-c706-808b-8007-0f14fc0f2791"><path d="M2376.710693359375,-263.289306640625C2365.67236328125,-263.289306640625,2356.710693359375,-254.32762145996094,2356.710693359375,-243.28932189941406L2356.710693359375,-213.28932189941406L2326.710693359375,-213.28932189941406L2326.710693359375,-291.289306640625L2306,-291.289306640625L2376.710693359375,-362L2447.42138671875,-291.289306640625L2426.710693359375,-291.289306640625L2426.710693359375,-213.28932189941406L2396.710693359375,-213.28932189941406L2396.710693359375,-243.28932189941406C2396.710693359375,-254.32762145996094,2387.7490234375,-263.289306640625,2376.710693359375,-263.289306640625"/></g><g id="strokes-ea6bffba-a0c6-8015-8007-11d248bcd28f-5ae5bcca-c706-808b-8007-0f14fc0f2791" class="strokes"><g class="inner-stroke-shape"><defs><clipPath id="inner-stroke-render-3-5ae5bcca-c706-808b-8007-0f14fc0f2791-0"><use href="#stroke-shape-render-3-5ae5bcca-c706-808b-8007-0f14fc0f2791-0"/></clipPath><path d="M2376.710693359375,-263.289306640625C2365.67236328125,-263.289306640625,2356.710693359375,-254.32762145996094,2356.710693359375,-243.28932189941406L2356.710693359375,-213.28932189941406L2326.710693359375,-213.28932189941406L2326.710693359375,-291.289306640625L2306,-291.289306640625L2376.710693359375,-362L2447.42138671875,-291.289306640625L2426.710693359375,-291.289306640625L2426.710693359375,-213.28932189941406L2396.710693359375,-213.28932189941406L2396.710693359375,-243.28932189941406C2396.710693359375,-254.32762145996094,2387.7490234375,-263.289306640625,2376.710693359375,-263.289306640625" id="stroke-shape-render-3-5ae5bcca-c706-808b-8007-0f14fc0f2791-0" style="fill: none; stroke-width: 10; stroke: rgb(232, 255, 0); stroke-opacity: 1;"/></defs><use href="#stroke-shape-render-3-5ae5bcca-c706-808b-8007-0f14fc0f2791-0" clip-path="url('#inner-stroke-render-3-5ae5bcca-c706-808b-8007-0f14fc0f2791-0')"/></g></g></g></svg>