<svg width="175" xmlns="http://www.w3.org/2000/svg" height="175" id="screenshot-5ae5bcca-c706-808b-8007-0f15ca5a560d" viewBox="-15 -45 175 175" xmlns:xlink="http://www.w3.org/1999/xlink" fill="none" version="1.1"><g id="shape-5ae5bcca-c706-808b-8007-0f15ca5a560d"><g class="fills" id="fills-5ae5bcca-c706-808b-8007-0f15ca5a560d"><path d="M72.5,-45C120.79248046875,-45,160,-5.792572021484375,160,42.5C160,90.79257202148438,120.79248046875,130,72.5,130C24.20751953125,130,-15,90.79257202148438,-15,42.5C-15,-5.792572021484375,24.20751953125,-45,72.5,-45M72.5,30.5C72.5068359375,30.5,72.513916015625,30.5,72.520751953125,30.5M72.5,-19.5C58.7021484375,-19.5,47.5,-8.297882080078125,47.5,5.5C47.5,19.24407958984375,58.614990234375,30.41259765625,72.338623046875,30.499481201171875C72.392333984375,30.49981689453125,72.4462890625,30.5,72.520751953125,30.5C72.60205078125,30.49993896484375,72.683349609375,30.499481201171875,72.764404296875,30.498626708984375C86.440673828125,30.3565673828125,97.5,19.209625244140625,97.5,5.5C97.5,-8.297882080078125,86.2978515625,-19.5,72.5,-19.5M72.3759765625,30.500152587890625C44.837158203125,30.56719970703125,22.5,52.94563293457031,22.5,80.5C22.5,86.84408569335938,23.68408203125,92.91380310058594,25.843017578125,98.5L119.156982421875,98.5C121.31591796875,92.91380310058594,122.5,86.84408569335938,122.5,80.5C122.5,52.959442138671875,100.185302734375,30.589630126953125,72.66552734375,30.500274658203125"/></g><g id="strokes-ea6bffba-a0c6-8015-8007-11d248bdf0c0-5ae5bcca-c706-808b-8007-0f15ca5a560d" class="strokes"><g class="inner-stroke-shape"><defs><clipPath id="inner-stroke-render-4-5ae5bcca-c706-808b-8007-0f15ca5a560d-0"><use href="#stroke-shape-render-4-5ae5bcca-c706-808b-8007-0f15ca5a560d-0"/></clipPath><path d="M72.5,-45C120.79248046875,-45,160,-5.792572021484375,160,42.5C160,90.79257202148438,120.79248046875,130,72.5,130C24.20751953125,130,-15,90.79257202148438,-15,42.5C-15,-5.792572021484375,24.20751953125,-45,72.5,-45M72.5,30.5C72.5068359375,30.5,72.513916015625,30.5,72.520751953125,30.5M72.5,-19.5C58.7021484375,-19.5,47.5,-8.297882080078125,47.5,5.5C47.5,19.24407958984375,58.614990234375,30.41259765625,72.338623046875,30.499481201171875C72.392333984375,30.49981689453125,72.4462890625,30.5,72.520751953125,30.5C72.60205078125,30.49993896484375,72.683349609375,30.499481201171875,72.764404296875,30.498626708984375C86.440673828125,30.3565673828125,97.5,19.209625244140625,97.5,5.5C97.5,-8.297882080078125,86.2978515625,-19.5,72.5,-19.5M72.3759765625,30.500152587890625C44.837158203125,30.56719970703125,22.5,52.94563293457031,22.5,80.5C22.5,86.84408569335938,23.68408203125,92.91380310058594,25.843017578125,98.5L119.156982421875,98.5C121.31591796875,92.91380310058594,122.5,86.84408569335938,122.5,80.5C122.5,52.959442138671875,100.185302734375,30.589630126953125,72.66552734375,30.500274658203125" id="stroke-shape-render-4-5ae5bcca-c706-808b-8007-0f15ca5a560d-0" style="fill: none; stroke-width: 6; stroke: rgb(0, 0, 0); stroke-opacity: 1;"/></defs><use href="#stroke-shape-render-4-5ae5bcca-c706-808b-8007-0f15ca5a560d-0" clip-path="url('#inner-stroke-render-4-5ae5bcca-c706-808b-8007-0f15ca5a560d-0')"/></g></g></g></svg>