<svg width="175" xmlns="http://www.w3.org/2000/svg" height="175" id="screenshot-5ae5bcca-c706-808b-8007-0f169c481376" viewBox="-92.458 -344.895 175 175" xmlns:xlink="http://www.w3.org/1999/xlink" fill="none" version="1.1"><g id="shape-5ae5bcca-c706-808b-8007-0f169c481376"><g class="fills" id="fills-5ae5bcca-c706-808b-8007-0f169c481376"><path d="M-4.958080768585205,-344.8946533203125C43.33440017700195,-344.8946533203125,82.54191589355469,-305.68719482421875,82.54191589355469,-257.3946533203125C82.54191589355469,-209.10206604003906,43.33440017700195,-169.89463806152344,-4.958080768585205,-169.89463806152344C-53.25056076049805,-169.89463806152344,-92.45808410644531,-209.10206604003906,-92.45808410644531,-257.3946533203125C-92.45808410644531,-305.68719482421875,-53.25056076049805,-344.8946533203125,-4.958080768585205,-344.8946533203125M-4.958080768585205,-269.3946533203125C-4.951244831085205,-269.3946533203125,-4.944164752960205,-269.3946533203125,-4.937328815460205,-269.3946533203125M-4.958080768585205,-319.3946533203125C-18.755931854248047,-319.3946533203125,-29.958080291748047,-308.1925048828125,-29.958080291748047,-294.3946533203125C-29.958080291748047,-280.650634765625,-18.843090057373047,-269.4820556640625,-5.119457721710205,-269.3951416015625C-5.065746784210205,-269.39483642578125,-5.011791706085205,-269.3946533203125,-4.937328815460205,-269.3946533203125C-4.856029987335205,-269.39471435546875,-4.774731159210205,-269.39520263671875,-4.693676471710205,-269.39599609375C8.982593536376953,-269.5380859375,20.041919708251953,-280.68505859375,20.041919708251953,-294.3946533203125C20.041919708251953,-308.1925048828125,8.839771270751953,-319.3946533203125,-4.958080768585205,-319.3946533203125M-5.082104206085205,-269.39453125C-32.62092208862305,-269.32745361328125,-54.95808029174805,-246.9490203857422,-54.95808029174805,-219.39463806152344C-54.95808029174805,-213.05055236816406,-53.77399826049805,-206.98085021972656,-51.61506271362305,-201.39463806152344L41.69890213012695,-201.39463806152344C43.85783767700195,-206.98085021972656,45.04191970825195,-213.05055236816406,45.04191970825195,-219.39463806152344C45.04191970825195,-246.93519592285156,22.727222442626953,-269.30499267578125,-4.792553424835205,-269.3944091796875" style="fill: rgb(232, 255, 0); fill-opacity: 1;"/></g></g></svg>