<svg width="400" xmlns="http://www.w3.org/2000/svg" height="400" id="screenshot-a7af8ba5-5f25-803d-8007-11ce1d19cc7e" viewBox="0 0 400 400" xmlns:xlink="http://www.w3.org/1999/xlink" fill="none" version="1.1"><g id="shape-a7af8ba5-5f25-803d-8007-11ce1d19cc7e" rx="0" ry="0"><g id="shape-a7af8ba5-5f25-803d-8007-11cdf9994baa"><g class="fills" id="fills-a7af8ba5-5f25-803d-8007-11cdf9994baa"><rect rx="0" ry="0" x="0" y="0" transform="matrix(1.000000, 0.000000, 0.000000, 1.000000, 0.000000, 0.000000)" width="400" height="400" style="fill: rgb(0, 0, 0); fill-opacity: 0;"/></g></g><g id="shape-a7af8ba5-5f25-803d-8007-11cdca46c755" rx="0" ry="0"><g id="shape-a7af8ba5-5f25-803d-8007-11cd1821e6b6"><g class="fills" id="fills-a7af8ba5-5f25-803d-8007-11cd1821e6b6"><path d="M224.748779296875,224.7486572265625C263.77490234375,185.7225341796875,263.775146484375,122.3536376953125,224.748779296875,83.327392578125C185.722412109375,44.301025390625,122.353515625,44.301025390625,83.327392578125,83.327392578125C44.301025390625,122.353759765625,44.301025390625,185.722412109375,83.327392578125,224.7486572265625C122.353759765625,263.7750244140625,185.722412109375,263.775146484375,224.748779296875,224.7486572265625M101.005126953125,101.0050048828125C130.274658203125,71.7353515625,177.80126953125,71.7353515625,207.071044921875,101.0050048828125C236.3408203125,130.274658203125,236.3408203125,177.8013916015625,207.071044921875,207.071044921875C177.801513671875,236.3406982421875,130.274658203125,236.3406982421875,101.005126953125,207.071044921875C71.7353515625,177.80126953125,71.7353515625,130.274658203125,101.005126953125,101.0050048828125" style="fill: rgb(217, 255, 0); fill-opacity: 1;"/></g></g><g id="shape-a7af8ba5-5f25-803d-8007-11cd3ab73cfd"><g class="fills" id="fills-a7af8ba5-5f25-803d-8007-11cd3ab73cfd"><rect rx="10" ry="10" x="251.13961030678502" y="188.63961030679252" transform="matrix(-0.707107, 0.707107, -0.707107, -0.707107, 636.482323, 263.639610)" width="24.999999999992724" height="149.99999999999113" style="fill: rgb(217, 255, 0); fill-opacity: 1;"/></g></g></g></g></svg>